<svg width="286" height="48" viewBox="0 0 286 48" fill="none" xmlns="http://www.w3.org/2000/svg">
<path d="M0 12C0 9.23858 2.30254 7 5.14286 7H30.8571C33.6975 7 36 9.23858 36 12V37C36 39.7614 33.6975 42 30.8571 42H5.14286C2.30254 42 0 39.7614 0 37V12Z" fill="#454545"/>
<path d="M18 19.9453C17.707 19.9453 17.4259 19.8321 17.2187 19.6307C17.0115 19.4292 16.8951 19.156 16.8951 18.8711V14.5742C16.8951 14.2893 17.0115 14.0161 17.2187 13.8146C17.4259 13.6132 17.707 13.5 18 13.5C18.293 13.5 18.5741 13.6132 18.7813 13.8146C18.9885 14.0161 19.1049 14.2893 19.1049 14.5742V18.8711C19.1049 19.156 18.9885 19.4292 18.7813 19.6307C18.5741 19.8321 18.293 19.9453 18 19.9453ZM18 35.5C17.707 35.5 17.4259 35.3868 17.2187 35.1854C17.0115 34.9839 16.8951 34.7107 16.8951 34.4258V30.1289C16.8951 29.844 17.0115 29.5708 17.2187 29.3693C17.4259 29.1679 17.707 29.0547 18 29.0547C18.293 29.0547 18.5741 29.1679 18.7813 29.3693C18.9885 29.5708 19.1049 29.844 19.1049 30.1289V34.4258C19.1049 34.7107 18.9885 34.9839 18.7813 35.1854C18.5741 35.3868 18.293 35.5 18 35.5ZM12.2103 25.5742H7.79063C7.49758 25.5742 7.21655 25.461 7.00934 25.2596C6.80212 25.0581 6.68571 24.7849 6.68571 24.5C6.68571 24.2151 6.80212 23.9419 7.00934 23.7404C7.21655 23.539 7.49758 23.4258 7.79063 23.4258H12.2103C12.5033 23.4258 12.7843 23.539 12.9916 23.7404C13.1988 23.9419 13.3152 24.2151 13.3152 24.5C13.3152 24.7849 13.1988 25.0581 12.9916 25.2596C12.7843 25.461 12.5033 25.5742 12.2103 25.5742ZM28.2094 25.5742H23.7897C23.4967 25.5742 23.2157 25.461 23.0084 25.2596C22.8012 25.0581 22.6848 24.7849 22.6848 24.5C22.6848 24.2151 22.8012 23.9419 23.0084 23.7404C23.2157 23.539 23.4967 23.4258 23.7897 23.4258H28.2094C28.5024 23.4258 28.7835 23.539 28.9907 23.7404C29.1979 23.9419 29.3143 24.2151 29.3143 24.5C29.3143 24.7849 29.1979 25.0581 28.9907 25.2596C28.7835 25.461 28.5024 25.5742 28.2094 25.5742ZM22.0939 21.594C21.8755 21.5936 21.6622 21.5304 21.4808 21.4122C21.2994 21.294 21.1581 21.1262 21.0747 20.9299C20.9913 20.7337 20.9696 20.5179 21.0124 20.3097C21.0551 20.1014 21.1603 19.9102 21.3147 19.7601L24.4377 16.7227C24.5391 16.6181 24.661 16.5343 24.7963 16.4764C24.9316 16.4185 25.0775 16.3876 25.2253 16.3854C25.3732 16.3833 25.5199 16.4101 25.6569 16.4641C25.7939 16.5181 25.9184 16.5983 26.0229 16.7C26.1274 16.8016 26.2099 16.9226 26.2655 17.0558C26.3211 17.189 26.3486 17.3316 26.3464 17.4754C26.3442 17.6191 26.3124 17.7609 26.2528 17.8925C26.1933 18.024 26.1071 18.1426 25.9996 18.2412L22.8744 21.2795C22.772 21.3793 22.6503 21.4584 22.5164 21.5124C22.3825 21.5664 22.2389 21.5941 22.0939 21.594ZM10.781 32.5927C10.5625 32.5926 10.3489 32.5295 10.1673 32.4114C9.98572 32.2933 9.84421 32.1255 9.76067 31.9292C9.67714 31.733 9.65533 31.517 9.69801 31.3087C9.74069 31.1004 9.84593 30.909 10.0004 30.7588L13.1247 27.7227C13.2273 27.6229 13.3491 27.5438 13.4832 27.4898C13.6173 27.4358 13.761 27.408 13.9061 27.408C14.0512 27.408 14.1949 27.4358 14.329 27.4898C14.463 27.5438 14.5849 27.6229 14.6875 27.7227C14.7901 27.8224 14.8715 27.9409 14.927 28.0712C14.9826 28.2016 15.0111 28.3413 15.0111 28.4823C15.0111 28.6234 14.9826 28.7631 14.927 28.8935C14.8715 29.0238 14.7901 29.1423 14.6875 29.242L11.5623 32.2773C11.4599 32.3774 11.3381 32.4567 11.204 32.5108C11.0699 32.565 10.9261 32.5928 10.781 32.5927ZM13.9061 21.594C13.761 21.5942 13.6172 21.5665 13.4831 21.5125C13.349 21.4586 13.2272 21.3794 13.1247 21.2795L10.0004 18.2412C9.89288 18.1426 9.80675 18.024 9.74717 17.8925C9.68759 17.7609 9.65577 17.6191 9.65359 17.4754C9.65142 17.3316 9.67893 17.189 9.7345 17.0558C9.79006 16.9226 9.87256 16.8016 9.9771 16.7C10.0816 16.5983 10.2061 16.5181 10.3431 16.4641C10.4801 16.4101 10.6268 16.3833 10.7747 16.3854C10.9225 16.3876 11.0684 16.4185 11.2037 16.4764C11.339 16.5343 11.4609 16.6181 11.5623 16.7227L14.6875 19.761C14.842 19.9112 14.9473 20.1026 14.99 20.311C15.0326 20.5194 15.0107 20.7355 14.9271 20.9318C14.8434 21.1281 14.7018 21.2959 14.52 21.4139C14.3383 21.5319 14.1246 21.5941 13.9061 21.594ZM25.219 32.5927C25.0739 32.5928 24.9301 32.565 24.796 32.5108C24.6619 32.4567 24.5401 32.3774 24.4377 32.2773L21.3147 29.2399C21.1248 29.0355 21.0228 28.7679 21.03 28.4925C21.0372 28.2171 21.1529 27.9549 21.3533 27.7601C21.5536 27.5653 21.8233 27.4528 22.1066 27.4459C22.3899 27.4389 22.6651 27.538 22.8753 27.7227L25.9996 30.7588C26.1541 30.9091 26.2594 31.1005 26.302 31.3089C26.3447 31.5173 26.3228 31.7333 26.2392 31.9296C26.1555 32.1259 26.0139 32.2937 25.8321 32.4118C25.6504 32.5298 25.4376 32.5928 25.219 32.5927Z" fill="white"/>
<path d="M77.5909 9.90909V39H74.1818L58.3295 16.1591H58.0455V39H54.5227V9.90909H57.9318L73.8409 32.8068H74.125V9.90909H77.5909ZM109.185 24.4545C109.185 27.5227 108.631 30.1742 107.523 32.4091C106.415 34.6439 104.896 36.3674 102.964 37.5795C101.032 38.7917 98.8255 39.3977 96.3445 39.3977C93.8634 39.3977 91.657 38.7917 89.7251 37.5795C87.7933 36.3674 86.2734 34.6439 85.1655 32.4091C84.0575 30.1742 83.5036 27.5227 83.5036 24.4545C83.5036 21.3864 84.0575 18.7348 85.1655 16.5C86.2734 14.2652 87.7933 12.5417 89.7251 11.3295C91.657 10.1174 93.8634 9.51136 96.3445 9.51136C98.8255 9.51136 101.032 10.1174 102.964 11.3295C104.896 12.5417 106.415 14.2652 107.523 16.5C108.631 18.7348 109.185 21.3864 109.185 24.4545ZM105.776 24.4545C105.776 21.9356 105.355 19.8097 104.512 18.0767C103.679 16.3438 102.547 15.0322 101.117 14.142C99.6967 13.2519 98.1058 12.8068 96.3445 12.8068C94.5831 12.8068 92.9875 13.2519 91.5575 14.142C90.1371 15.0322 89.0054 16.3438 88.1626 18.0767C87.3293 19.8097 86.9126 21.9356 86.9126 24.4545C86.9126 26.9735 87.3293 29.0994 88.1626 30.8324C89.0054 32.5653 90.1371 33.8769 91.5575 34.767C92.9875 35.6572 94.5831 36.1023 96.3445 36.1023C98.1058 36.1023 99.6967 35.6572 101.117 34.767C102.547 33.8769 103.679 32.5653 104.512 30.8324C105.355 29.0994 105.776 26.9735 105.776 24.4545ZM115.109 39V9.90909H124.938C127.211 9.90909 129.076 10.2973 130.535 11.0739C131.993 11.8409 133.073 12.8968 133.773 14.2415C134.474 15.5862 134.825 17.1155 134.825 18.8295C134.825 20.5436 134.474 22.0634 133.773 23.3892C133.073 24.715 131.998 25.7566 130.549 26.5142C129.1 27.2623 127.249 27.6364 124.995 27.6364H117.04V24.4545H124.881C126.434 24.4545 127.684 24.2273 128.631 23.7727C129.588 23.3182 130.279 22.6742 130.705 21.8409C131.141 20.9981 131.359 19.9943 131.359 18.8295C131.359 17.6648 131.141 16.6468 130.705 15.7756C130.27 14.9044 129.574 14.232 128.617 13.7585C127.661 13.2756 126.397 13.0341 124.825 13.0341H118.631V39H115.109ZM128.802 25.9318L135.961 39H131.87L124.825 25.9318H128.802ZM163.763 9.90909V39H160.354L144.501 16.1591H144.217V39H140.695V9.90909H144.104L160.013 32.8068H160.297V9.90909H163.763ZM170.812 39V9.90909H174.335V35.875H187.857V39H170.812ZM196.835 9.90909V39H193.312V9.90909H196.835ZM223.784 19C223.472 18.0436 223.06 17.1866 222.548 16.429C222.046 15.6619 221.445 15.0085 220.744 14.4688C220.053 13.929 219.267 13.517 218.386 13.233C217.506 12.9489 216.54 12.8068 215.489 12.8068C213.765 12.8068 212.198 13.2519 210.787 14.142C209.376 15.0322 208.254 16.3438 207.42 18.0767C206.587 19.8097 206.17 21.9356 206.17 24.4545C206.17 26.9735 206.592 29.0994 207.435 30.8324C208.277 32.5653 209.419 33.8769 210.858 34.767C212.297 35.6572 213.917 36.1023 215.716 36.1023C217.383 36.1023 218.85 35.7472 220.119 35.0369C221.398 34.3172 222.392 33.304 223.102 31.9972C223.822 30.6809 224.182 29.1326 224.182 27.3523L225.261 27.5795H216.511V24.4545H227.591V27.5795C227.591 29.9754 227.08 32.0587 226.057 33.8295C225.044 35.6004 223.642 36.9735 221.852 37.9489C220.072 38.9148 218.027 39.3977 215.716 39.3977C213.14 39.3977 210.877 38.7917 208.926 37.5795C206.985 36.3674 205.47 34.6439 204.381 32.4091C203.301 30.1742 202.761 27.5227 202.761 24.4545C202.761 22.1534 203.069 20.0843 203.685 18.2472C204.31 16.4006 205.19 14.8286 206.327 13.5312C207.463 12.2339 208.808 11.2396 210.361 10.5483C211.914 9.85701 213.623 9.51136 215.489 9.51136C217.023 9.51136 218.453 9.74337 219.778 10.2074C221.114 10.6619 222.302 11.3106 223.344 12.1534C224.395 12.9867 225.271 13.9858 225.972 15.1506C226.672 16.3059 227.155 17.589 227.42 19H223.784ZM233.624 39V9.90909H237.147V22.8636H252.658V9.90909H256.181V39H252.658V25.9886H237.147V39H233.624ZM261.643 13.0341V9.90909H283.461V13.0341H274.313V39H270.79V13.0341H261.643Z" fill="#454545"/>
</svg>
